{"title":"Geordie Shore S09E03 WEB-DL","uid":11453650,"size":499873331,"categoryP":"video","categoryS":"tv_shows","magnet":"?xt=urn:btih:20c02bbf16449b6d9cd6ba317bb86ce25a58d829&amp;dn=Geordie+Shore+S09E03+WEB-DL&amp;tr=udp%3A%2F%2Ftracker.openbittorrent.com%3A80&amp;tr=udp%3A%2F%2Fopen.demonii.com%3A1337&amp;tr=udp%3A%2F%2Ftracker.coppersurfer.tk%3A6969&amp;tr=udp%3A%2F%2Fexodus.desync.com%3A6969","seeders":14,"leechers":0,"uploader":"jmanwf","files":-1,"time":1415913454,"description":"Ooh la la! Boss Anna calls to tell the Geordies that they all have a Tash on Tours job in Paris.\n\n\nFormat : MPEG-4\nFormat profile : Base Media / Version 2\nCodec ID : mp42\nFile size : 477 MiB\nDuration : 41mn 57s\nOverall bit rate mode : Variable\nOverall bit rate : 1 588 Kbps\nEncoded date : UTC 2014-11-13 03:24:19\nTagged date : UTC 2014-11-13 04:39:04\nWriting application : HandBrake 0.9.9 2013052900\n\nVideo\nID : 1\nFormat : AVC\nFormat/Info : Advanced Video Codec\nFormat profile : &lt;a class=&quot;__cf_email__&quot; href=&quot;/cdn-cgi/l/email-protection&quot; data-cfemail=&quot;470a262e29070b736977&quot;&gt;[email&amp;#160;protected]&lt;/a&gt;&lt;script cf-hash='f9e31' type=&quot;text/javascript&quot;&gt;\n/* &lt;![CDATA[ */!function(){try{var t=&quot;currentScript&quot;in document?document.currentScript:function(){for(var t=document.getElementsByTagName(&quot;script&quot;),e=t.length;e--;)if(t[e].getAttribute(&quot;cf-hash&quot;))return t[e]}();if(t&amp;&amp;t.previousSibling){var e,r,n,i,c=t.previousSibling,a=c.getAttribute(&quot;data-cfemail&quot;);if(a){for(e=&quot;&quot;,r=parseInt(a.substr(0,2),16),n=2;a.length-n;n+=2)i=parseInt(a.substr(n,2),16)^r,e+=String.fromCharCode(i);e=document.createTextNode(e),c.parentNode.replaceChild(e,c)}}}catch(u){}}();/* ]]&gt; */&lt;/script&gt;\nFormat settings, CABAC : Yes\nFormat settings, ReFrames : 8 frames\nCodec ID : avc1\nCodec ID/Info : Advanced Video Coding\nDuration : 41mn 57s\nBit rate : 1 472 Kbps\nWidth : 952 pixels\nHeight : 480 pixels\nDisplay aspect ratio : 16:9\nFrame rate mode : Variable\nFrame rate : 25.000 fps\nMinimum frame rate : 12.927 fps\nMaximum frame rate : 378.151 fps\nColor space : YUV\nChroma subsampling : 4:2:0\nBit depth : 8 bits\nScan type : Progressive\nBits/(Pixel*Frame) : 0.129\nStream size : 442 MiB (93%)\nWriting library : x264 core 130 r2273 b3065e6\n\nEncoded date : UTC 2014-11-13 03:24:19\nTagged date : UTC 2014-11-13 04:39:04\nColor primaries : BT.709\nTransfer characteristics : BT.709\nMatrix coefficients : BT.709\n\nAudio\nID : 2\nFormat : AAC\nFormat/Info : Advanced Audio Codec\nFormat profile : LC\nCodec ID : 40\nDuration : 41mn 57s\nBit rate mode : Variable\nBit rate : 112 Kbps\nMaximum bit rate : 234 Kbps\nChannel(s) : 2 channels\nChannel positions : Front: L R\nSampling rate : 48.0 KHz\nCompression mode : Lossy\nStream size : 33.6 MiB (7%)\nLanguage : English\nEncoded date : UTC 2014-11-13 03:24:19\nTagged date : UTC 2014-11-13 04:39:03","torrent":{"xt":"urn:btih:20c02bbf16449b6d9cd6ba317bb86ce25a58d829","amp;dn":"Geordie+Shore+S09E03+WEB-DL","amp;tr":["udp%3A%2F%2Ftracker.openbittorrent.com%3A80","udp%3A%2F%2Fopen.demonii.com%3A1337","udp%3A%2F%2Ftracker.coppersurfer.tk%3A6969","udp%3A%2F%2Fexodus.desync.com%3A6969"],"infoHash":"20c02bbf16449b6d9cd6ba317bb86ce25a58d829","infoHashBuffer":{"type":"Buffer","data":[32,192,43,191,22,68,155,109,156,214,186,49,123,184,108,226,90,88,216,41]},"announce":[],"urlList":[]}}